<svg xmlns="http://www.w3.org/2000/svg" viewBox="0 0 400 240" width="100%" height="100%">
  <defs>
    <linearGradient id="bgRAG" x1="0%" y1="0%" x2="100%" y2="100%">
      <stop offset="0%" stop-color="#18181b" />
      <stop offset="100%" stop-color="#09090b" />
    </linearGradient>
  </defs>
  <rect width="400" height="240" fill="url(#bgRAG)" rx="12"/>
  <g opacity="0.1" stroke="#ffffff" stroke-width="1">
    <path d="M 50 40 L 350 40 M 50 120 L 350 120 M 50 200 L 350 200"/>
  </g>
  <!-- Vector DB Node -->
  <rect x="35" y="80" width="90" height="75" rx="8" fill="#27272a" stroke="#a855f7" stroke-width="2"/>
  <text x="80" y="112" font-family="'JetBrains Mono', monospace" font-size="10.5" font-weight="700" fill="#d8b4fe" text-anchor="middle">Vector Store</text>
  <text x="80" y="130" font-family="'JetBrains Mono', monospace" font-size="8.5" fill="#a1a1aa" text-anchor="middle">Qdrant · FAISS</text>
  <!-- Arrow -->
  <path d="M 125 117 L 165 117" stroke="#a855f7" stroke-width="2"/>
  <polygon points="165,114 172,117 165,120" fill="#a855f7"/>
  <!-- Evaluator / Self-Correction -->
  <rect x="175" y="70" width="105" height="95" rx="8" fill="#18181b" stroke="#f59e0b" stroke-width="2"/>
  <text x="227" y="100" font-family="'JetBrains Mono', monospace" font-size="10.5" font-weight="700" fill="#fbbf24" text-anchor="middle">Self-Correct</text>
  <text x="227" y="116" font-family="'JetBrains Mono', monospace" font-size="8.5" fill="#fde68a" text-anchor="middle">Retrieval Evaluator</text>
  <text x="227" y="135" font-family="'JetBrains Mono', monospace" font-size="8" fill="#94a3b8" text-anchor="middle">Dense/Sparse Rerank</text>
  <path d="M 227 142 C 200 160, 160 160, 130 142" fill="none" stroke="#f59e0b" stroke-width="1.5" stroke-dasharray="3 3"/>
  <!-- Output Node -->
  <path d="M 280 117 L 315 117" stroke="#10b981" stroke-width="2"/>
  <polygon points="315,114 322,117 315,120" fill="#10b981"/>
  <rect x="325" y="80" width="55" height="75" rx="8" fill="#27272a" stroke="#10b981" stroke-width="2"/>
  <text x="352" y="115" font-family="'JetBrains Mono', monospace" font-size="10.5" font-weight="700" fill="#34d399" text-anchor="middle">Ground</text>
  <text x="352" y="132" font-family="'JetBrains Mono', monospace" font-size="8" fill="#a1a1aa" text-anchor="middle">Truth</text>
  <!-- Top Badge -->
  <rect x="25" y="20" width="175" height="24" rx="6" fill="#27272a" stroke="#52525b" stroke-width="1"/>
  <text x="112" y="36" font-family="'JetBrains Mono', monospace" font-size="9" font-weight="600" fill="#e4e4e7" text-anchor="middle">🔬 Comparative RAG Lab</text>
</svg>
